<svg id="Layer_1" data-name="Layer 1" xmlns="http://www.w3.org/2000/svg" viewBox="0 0 64 64"><defs><style>.cls-1{fill:#6b7178;}.cls-2{fill:#0288c9;}</style></defs><path class="cls-1" d="M48.82,28.19a1.45,1.45,0,0,1-1.44-1.44V18.19a.44.44,0,0,0-.44-.44H38.39a1.44,1.44,0,1,1,0-2.87H48.82a1.43,1.43,0,0,1,1.44,1.43V26.75A1.44,1.44,0,0,1,48.82,28.19Z"/><path class="cls-1" d="M38.39,49.12a1.44,1.44,0,1,1,0-2.87h8.55a.44.44,0,0,0,.44-.44V37.25a1.44,1.44,0,0,1,2.88,0V47.69a1.43,1.43,0,0,1-1.44,1.43Z"/><path class="cls-1" d="M15.18,28.19a1.44,1.44,0,0,1-1.44-1.44V16.31a1.43,1.43,0,0,1,1.44-1.43H25.61a1.44,1.44,0,1,1,0,2.87H17.06a.44.44,0,0,0-.44.44v8.56A1.45,1.45,0,0,1,15.18,28.19Z"/><path class="cls-1" d="M15.18,49.12a1.43,1.43,0,0,1-1.44-1.44V37.25a1.44,1.44,0,0,1,2.88,0V45.8a.43.43,0,0,0,.44.44h8.55a1.44,1.44,0,1,1,0,2.88Z"/><path class="cls-2" d="M32,39.11c-7.4,0-13.46-5.36-13.46-7.11S24.59,24.88,32,24.88,45.47,30.24,45.47,32,39.41,39.11,32,39.11Zm3.65-12a6.11,6.11,0,0,1,0,9.83C40.06,35.81,43.25,33,43.69,32,43.25,31,40,28.21,35.64,27.09ZM20.3,32c.44,1,3.67,3.79,8.06,4.91a6.11,6.11,0,0,1,0-9.83C23.93,28.18,20.74,31,20.3,32ZM32,27.63A4.37,4.37,0,1,0,36.36,32,4.37,4.37,0,0,0,32,27.63Z"/><path class="cls-1" d="M25.37,21.65h0a1.3,1.3,0,0,1,1.3,1.29v1.72l-.24.08c-.7.23-1.31.46-1.86.7l-.49.22V22.94A1.29,1.29,0,0,1,25.37,21.65Z"/><path class="cls-1" d="M25.37,42.35a1.3,1.3,0,0,1-1.29-1.3V38.33l.49.22c.56.25,1.17.47,1.86.7l.24.08v1.72a1.3,1.3,0,0,1-1.3,1.3Z"/><path class="cls-1" d="M29.14,42.35a1.3,1.3,0,0,1-1.3-1.3V39.67l.43.09a17,17,0,0,0,1.85.31l.32,0v.95a1.3,1.3,0,0,1-1.3,1.3Z"/><path class="cls-1" d="M29.14,21.65h0a1.3,1.3,0,0,1,1.3,1.3v.94l-.36,0a17.16,17.16,0,0,0-1.88.32l-.36.08V23A1.3,1.3,0,0,1,29.14,21.65Z"/><path class="cls-1" d="M34.71,24a19.26,19.26,0,0,0-2-.2h-.24v-.88a1.3,1.3,0,0,1,1.3-1.29h0a1.29,1.29,0,0,1,1.29,1.29v1.15Z"/><path class="cls-1" d="M33.75,42.35a1.29,1.29,0,0,1-1.29-1.29v-.89h.26a18.89,18.89,0,0,0,2-.2l.34-.05v1.14a1.3,1.3,0,0,1-1.3,1.3Z"/><path class="cls-1" d="M39,25.28c-.7-.28-1.29-.5-1.85-.67l-.25-.08V22.94a1.29,1.29,0,0,1,1.29-1.29h0a1.3,1.3,0,0,1,1.3,1.29v2.54Z"/><path class="cls-1" d="M38.21,42.35a1.3,1.3,0,0,1-1.3-1.3V39.46l.25-.07c.55-.17,1.14-.39,1.86-.68l.49-.19v2.53a1.3,1.3,0,0,1-1.3,1.3Z"/><path class="cls-1" d="M43.43,27.79a19.1,19.1,0,0,0-2-1.34l-.11-.07V22.94a1.29,1.29,0,0,1,1.29-1.29h0a1.3,1.3,0,0,1,1.3,1.29v5.19Z"/><path class="cls-1" d="M41.3,37.61l.1-.06a19.23,19.23,0,0,0,2-1.34l.46-.35v5.19a1.3,1.3,0,0,1-1.3,1.3h0a1.3,1.3,0,0,1-1.29-1.3Z"/><path class="cls-1" d="M21.09,21.65a1.3,1.3,0,0,0-1.3,1.29v5.43L20.3,28a20.29,20.29,0,0,1,2-1.36l.12-.07V22.94a1.3,1.3,0,0,0-1.3-1.29Z"/><path class="cls-1" d="M22.29,37.38a18,18,0,0,1-2-1.35l-.52-.41v5.43a1.3,1.3,0,0,0,1.29,1.3h0a1.3,1.3,0,0,0,1.3-1.3V37.44Z"/></svg>