<svg id="Layer_1" data-name="Layer 1" xmlns="http://www.w3.org/2000/svg" viewBox="0 0 64 64"><defs><style>.cls-1{fill:#6b7178;}.cls-2{fill:#0288c9;}</style></defs><path class="cls-1" d="M38,51.55H14.47a2.29,2.29,0,0,1-2.29-2.28V25.79a2.29,2.29,0,0,1,2.29-2.29H38a2.29,2.29,0,0,1,2.29,2.29V49.27A2.29,2.29,0,0,1,38,51.55Zm-22-3H36.45a.79.79,0,0,0,.79-.78V27.29a.79.79,0,0,0-.79-.79H16a.79.79,0,0,0-.79.79V47.77A.79.79,0,0,0,16,48.55Z"/><path class="cls-1" d="M43.86,17.5H20.38a2.29,2.29,0,0,0-2.29,2.29v1.92a.79.79,0,0,0,.79.79h1.43a.78.78,0,0,0,.78-.79v-.42a.79.79,0,0,1,.79-.79H42.36a.79.79,0,0,1,.79.79V41.77a.79.79,0,0,1-.79.78h-.43a.79.79,0,0,0-.78.79v1.43a.78.78,0,0,0,.78.78h1.93a2.29,2.29,0,0,0,2.29-2.28V19.79A2.29,2.29,0,0,0,43.86,17.5Z"/><path class="cls-1" d="M49.86,11.5H26.38a2.29,2.29,0,0,0-2.29,2.29v1.92a.79.79,0,0,0,.79.79h1.43a.78.78,0,0,0,.78-.79v-.42a.79.79,0,0,1,.79-.79H48.36a.79.79,0,0,1,.79.79V35.77a.79.79,0,0,1-.79.78h-.43a.79.79,0,0,0-.78.79v1.43a.78.78,0,0,0,.78.78h1.93a2.29,2.29,0,0,0,2.29-2.28V13.79A2.29,2.29,0,0,0,49.86,11.5Z"/><rect class="cls-2" x="18.48" y="29.8" width="6.4" height="6.4" rx="2.23"/><rect class="cls-2" x="27.54" y="29.8" width="6.4" height="6.4" rx="2.23"/><rect class="cls-2" x="18.48" y="38.86" width="6.4" height="6.4" rx="2.23"/><rect class="cls-2" x="27.54" y="38.86" width="6.4" height="6.4" rx="2.23"/></svg>