<svg id="Layer_1" data-name="Layer 1" xmlns="http://www.w3.org/2000/svg" viewBox="0 0 64 64"><defs><style>.cls-1{fill:#0288c9;}.cls-2{fill:#6b7178;}</style></defs><g id="Group_555" data-name="Group 555"><path class="cls-1" d="M26.43,48.39l-.07-10.83A1.52,1.52,0,0,1,27.87,36h8.19a1.52,1.52,0,0,1,1.52,1.51V48.39h-3V39.07H29.4l.05,9.32Z"/></g><path class="cls-2" d="M48.6,22.8,33.09,13a2.28,2.28,0,0,0-2.18,0L15.4,22.8A2.92,2.92,0,0,0,14,25.28V48.37A2.94,2.94,0,0,0,17,51.3h9.54a2.94,2.94,0,0,0,2.94-2.93h0v-.1h-11a1.43,1.43,0,0,1-1.42-1.42V26.11a1.42,1.42,0,0,1,.66-1.2l13.45-8.5a1.69,1.69,0,0,1,1.66,0l13.45,8.5a1.42,1.42,0,0,1,.66,1.2V46.85a1.43,1.43,0,0,1-1.42,1.42h-11v.1h0a2.94,2.94,0,0,0,2.94,2.93H47A2.94,2.94,0,0,0,50,48.37V25.28A2.92,2.92,0,0,0,48.6,22.8Z"/></svg>