<svg id="Layer_1" data-name="Layer 1" xmlns="http://www.w3.org/2000/svg" viewBox="0 0 64 64"><defs><style>.cls-1{fill:#0288c9;}.cls-2{fill:#6b7178;}</style></defs><rect class="cls-1" x="24.05" y="20.04" width="7.08" height="3.39" rx="1.22"/><path id="Path_366" data-name="Path 366" class="cls-1" d="M38.79,33.62h-13a1.7,1.7,0,1,0,0,3.39h13a1.7,1.7,0,1,0,0-3.39"/><path id="Path_367" data-name="Path 367" class="cls-1" d="M38.79,40.41h-13a1.7,1.7,0,1,0,0,3.39h13a1.7,1.7,0,1,0,0-3.39"/><path id="Path_368" data-name="Path 368" class="cls-1" d="M38.79,26.83h-13a1.7,1.7,0,1,0,0,3.39h13a1.7,1.7,0,1,0,0-3.39"/><path class="cls-2" d="M45,24.58l-10-10a.92.92,0,0,0-.79-.36H22.6a3.82,3.82,0,0,0-3.82,3.83V45.93a3.82,3.82,0,0,0,3.82,3.82H41.39a3.82,3.82,0,0,0,3.83-3.82V25.45A1.27,1.27,0,0,0,45,24.58ZM40.11,47.15H23.91a2.53,2.53,0,0,1-2.53-2.53V19.39a2.52,2.52,0,0,1,2.53-2.52h8.6a2.56,2.56,0,0,1,1.79.74l7.58,7.58A2.52,2.52,0,0,1,42.62,27V34h0v10.6A2.52,2.52,0,0,1,40.11,47.15Z"/></svg>