<svg id="Layer_1" data-name="Layer 1" xmlns="http://www.w3.org/2000/svg" viewBox="0 0 64 64"><defs><style>.cls-1{fill:#6b7178;}.cls-2{fill:#0288c9;}</style></defs><path class="cls-1" d="M16,46.25a5.33,5.33,0,0,1-5.33-5.33V23.08A5.33,5.33,0,0,1,16,17.75H48a5.33,5.33,0,0,1,5.33,5.33V40.92A5.33,5.33,0,0,1,48,46.25ZM15.93,21a2,2,0,0,0-2,2V41a2,2,0,0,0,2,2H48.07a2,2,0,0,0,2-2V23a2,2,0,0,0-2-2Z"/><path class="cls-2" d="M15,41.12v.48H17.8A1.57,1.57,0,0,0,19,41.07l4.94-5.57a1.53,1.53,0,0,1,2.28,0l4.12,4.65a2.33,2.33,0,0,0,3.48,0l4.13-4.66a1.52,1.52,0,0,1,2.27,0l4.95,5.58a1.57,1.57,0,0,0,1.18.53H49V41l-6.51-7.33a2.49,2.49,0,0,1,0-3.28L49,23V22.4H46.33a1.57,1.57,0,0,0-1.18.53l-6.08,6.86h0L33.8,35.72a2.32,2.32,0,0,1-3.48,0l-5.26-5.93h0L19,22.93a1.57,1.57,0,0,0-1.18-.53H15v.49l6.64,7.48a2.48,2.48,0,0,1,0,3.27Z"/></svg>