<svg id="Layer_1" data-name="Layer 1" xmlns="http://www.w3.org/2000/svg" viewBox="0 0 64 64"><defs><style>.cls-1{fill:#0288c9;}.cls-2{fill:#6b7178;}</style></defs><path class="cls-1" d="M31.92,30.07l5.49,5.49A1.13,1.13,0,0,0,39,34L35.44,30.4H49.35a1.13,1.13,0,1,0,0-2.25H35.44L39,24.58a1.13,1.13,0,0,0-1.6-1.6l-5.49,5.5A1.12,1.12,0,0,0,31.92,30.07Z"/><path class="cls-1" d="M41.31,26.91h14.2a1.12,1.12,0,1,0,0-2.24H41.31a1.12,1.12,0,0,0,0,2.24Z"/><path class="cls-1" d="M44.32,33.88h14.2a1.13,1.13,0,0,0,0-2.25H44.32a1.13,1.13,0,0,0,0,2.25Z"/><path class="cls-2" d="M6.53,30.55h.53a1.23,1.23,0,0,0,1-.49l3-4A2.72,2.72,0,0,1,13.25,25h1.46A1.23,1.23,0,0,0,16,23.78V20.72A2.74,2.74,0,0,1,18.69,18H44.48a2.74,2.74,0,0,1,2.74,2.74v1.54a1.5,1.5,0,1,1-3,0V21h-24A1.23,1.23,0,0,0,19,22.22v17.1H34.14a1.77,1.77,0,0,1,.4.08A4.13,4.13,0,0,1,41,38.89a1.23,1.23,0,0,0,.9.43H43a1.24,1.24,0,0,0,1.24-1.24V36a1.5,1.5,0,1,1,3,0v3.54a2.74,2.74,0,0,1-2.74,2.74H43.06a1.23,1.23,0,0,0-1.16.83,4.13,4.13,0,0,1-7.86,0,1.23,1.23,0,0,0-1.16-.83H16.34a1.23,1.23,0,0,0-1.16.83,4.13,4.13,0,0,1-7.94-.27.71.71,0,0,0-.68-.56h0a2.2,2.2,0,0,1-2.2-2.2v-7.4A2.17,2.17,0,0,1,6.53,30.55ZM38,43a1.22,1.22,0,1,0-1.18-1.22A1.2,1.2,0,0,0,38,43ZM15.25,28H14a1.25,1.25,0,0,0-1,.49l-1.56,2h3.81a.7.7,0,0,0,.7-.7V28.72A.7.7,0,0,0,15.25,28Zm-4,15a1.22,1.22,0,1,0-1.18-1.22A1.2,1.2,0,0,0,11.25,43Zm-3.9-3.7h.54a4.13,4.13,0,0,1,6.8.1,1.53,1.53,0,0,1,.49-.1H16V34.78a1.24,1.24,0,0,0-1.24-1.24H8.59a1.25,1.25,0,0,0-1.24,1.24Z"/></svg>