<svg id="Layer_1" data-name="Layer 1" xmlns="http://www.w3.org/2000/svg" viewBox="0 0 64 64"><defs><style>.cls-1{fill:#6b7178;}.cls-2{fill:#0288c9;}</style></defs><path class="cls-1" d="M18.78,43.84a3.68,3.68,0,0,1-3.68-3.68V34.25a2,2,0,0,1,.74-1.53l4-3.23a1.94,1.94,0,0,1,1.24-.44,2,2,0,0,1,1,.29l11.69,7.13,3-2.63a2,2,0,0,1,1.28-.49,2,2,0,0,1,1,.31l9.11,5.82a1.45,1.45,0,0,1,.54,1.83,4.34,4.34,0,0,1-3.93,2.53ZM21.07,31h0l-4,3.23v5.93a1.74,1.74,0,0,0,1.73,1.73H44.83a2.39,2.39,0,0,0,2-1L38.06,35.3l-3.13,2.75a1.71,1.71,0,0,1-1.12.42,1.63,1.63,0,0,1-.88-.25L21.09,31Z"/><path class="cls-2" d="M45,29.06a4.19,4.19,0,1,1,4.19-4.19A4.2,4.2,0,0,1,45,29.06Zm0-6.44a2.25,2.25,0,1,0,2.25,2.25A2.25,2.25,0,0,0,45,22.62Z"/><path class="cls-1" d="M17.24,48.7a7.12,7.12,0,0,1-7.12-7.11V22.41a7.12,7.12,0,0,1,7.12-7.11H46.76a7.12,7.12,0,0,1,7.12,7.11V41.59a7.12,7.12,0,0,1-7.12,7.11Zm0-30.46a4.18,4.18,0,0,0-4.18,4.17V41.59a4.18,4.18,0,0,0,4.18,4.17H46.76a4.18,4.18,0,0,0,4.18-4.17V22.41a4.18,4.18,0,0,0-4.18-4.17Z"/><path class="cls-2" d="M28.06,38.24a.92.92,0,0,1-.51-.15l-7.08-4.35A1,1,0,0,1,21,31.92a.92.92,0,0,1,.51.15l7.08,4.36a1,1,0,0,1,.32,1.34A1,1,0,0,1,28.06,38.24Z"/><path class="cls-2" d="M23.87,38.56a1,1,0,0,1-.52-.15l-4.83-3a1,1,0,0,1-.44-.61,1,1,0,0,1,.12-.75,1,1,0,0,1,.84-.46,1,1,0,0,1,.51.15l4.83,3a1,1,0,0,1,.44.61,1,1,0,0,1-.95,1.21Z"/><path class="cls-2" d="M42.45,41a.92.92,0,0,1-.51-.15L37.4,38.1a1,1,0,0,1-.32-1.35,1,1,0,0,1,.83-.47,1,1,0,0,1,.52.15L43,39.22A1,1,0,0,1,42.45,41Z"/><path class="cls-2" d="M38.05,41a.92.92,0,0,1-.51-.15l-1.82-1.12a1,1,0,0,1-.44-.6,1,1,0,0,1,.12-.75,1,1,0,0,1,.84-.46,1,1,0,0,1,.51.14l1.82,1.12a1,1,0,0,1,.44.61,1,1,0,0,1-.12.74A1,1,0,0,1,38.05,41Z"/><path class="cls-2" d="M37.18,25.37a1,1,0,0,1,0-2h2.4a1,1,0,0,1,0,2Z"/><path class="cls-2" d="M45.47,33.62a1,1,0,0,1-1-1V30.23a1,1,0,0,1,2,0v2.41A1,1,0,0,1,45.47,33.62Z"/><path class="cls-2" d="M39.41,31.42a.94.94,0,0,1-.69-.29,1,1,0,0,1,0-1.38l1.63-1.64a1,1,0,0,1,1.39,1.39l-1.63,1.63A1,1,0,0,1,39.41,31.42Z"/><path class="cls-2" d="M42.78,31.79a.94.94,0,0,1-.37-.07,1,1,0,0,1-.53-.53,1,1,0,0,1,0-.75l.36-.87a1,1,0,0,1,.9-.6.94.94,0,0,1,.37.07,1,1,0,0,1,.54,1.28l-.36.87A1,1,0,0,1,42.78,31.79Z"/><path class="cls-2" d="M39,28.1a1,1,0,0,1-.91-.6,1,1,0,0,1,.54-1.28l.86-.36a1,1,0,0,1,.38-.08,1,1,0,0,1,.37,1.89l-.86.36A1,1,0,0,1,39,28.1Z"/></svg>