<svg id="Layer_1" data-name="Layer 1" xmlns="http://www.w3.org/2000/svg" viewBox="0 0 64 64"><defs><style>.cls-1{fill:#0288c9;}.cls-2{fill:#6b7178;}</style></defs><path class="cls-1" d="M38.5,33.91H26a1.63,1.63,0,1,0,0,3.25H38.5a1.63,1.63,0,0,0,0-3.25Z"/><path class="cls-1" d="M38.5,40H26a1.63,1.63,0,1,0,0,3.25H38.5a1.63,1.63,0,0,0,0-3.25Z"/><path class="cls-1" d="M34.2,27.54H31.4v.1a1.49,1.49,0,0,0,.41,1.17,1.62,1.62,0,0,0,1.17.38,6.84,6.84,0,0,0,.79-.05,4.44,4.44,0,0,0,.76-.18l.15,1.85a5.55,5.55,0,0,1-.83.17A6.35,6.35,0,0,1,33,31a4.34,4.34,0,0,1-2.88-.91A3,3,0,0,1,29,27.64v-.1H28V26.37h1v-1H28V24.17h1v-.09a3.42,3.42,0,0,1,1.09-2.66,4.12,4.12,0,0,1,2.87-1,7.4,7.4,0,0,1,.83.05c.28,0,.57.1.89.17l-.15,1.87a4.8,4.8,0,0,0-.77-.18,4.33,4.33,0,0,0-.8-.07,1.46,1.46,0,0,0-1.15.47,1.93,1.93,0,0,0-.41,1.33v.1h2.8v1.18H31.4v1h2.8Z"/><path class="cls-2" d="M41.78,14.64H22.22A3.24,3.24,0,0,0,19,17.89V46.11a3.24,3.24,0,0,0,3.25,3.25H41.78A3.24,3.24,0,0,0,45,46.11V17.89A3.24,3.24,0,0,0,41.78,14.64Zm0,29.85a1.62,1.62,0,0,1-1.62,1.63H23.84a1.62,1.62,0,0,1-1.62-1.63v-25a1.62,1.62,0,0,1,1.62-1.63H40.16a1.62,1.62,0,0,1,1.62,1.63Z"/></svg>