<svg id="Layer_1" data-name="Layer 1" xmlns="http://www.w3.org/2000/svg" viewBox="0 0 64 64"><defs><style>.cls-1{fill:#0288c9;}.cls-2{fill:#6b7178;}</style></defs><path class="cls-1" d="M32.08,30.07l-5.49,5.49A1.13,1.13,0,0,1,25,34l3.57-3.57H14.65a1.13,1.13,0,1,1,0-2.25H28.56L25,24.58a1.13,1.13,0,0,1,1.6-1.6l5.49,5.5A1.12,1.12,0,0,1,32.08,30.07Z"/><path class="cls-1" d="M22.69,26.91H8.49a1.12,1.12,0,1,1,0-2.24h14.2a1.12,1.12,0,0,1,0,2.24Z"/><path class="cls-1" d="M19.68,33.88H5.48a1.13,1.13,0,0,1,0-2.25h14.2a1.13,1.13,0,0,1,0,2.25Z"/><path class="cls-2" d="M57.47,30.55h-.53a1.23,1.23,0,0,1-1-.49l-3-4A2.72,2.72,0,0,0,50.75,25H49.29a1.23,1.23,0,0,1-1.24-1.24V20.72A2.74,2.74,0,0,0,45.31,18H19.52a2.74,2.74,0,0,0-2.74,2.74v1.54a1.5,1.5,0,1,0,3,0V21h24a1.23,1.23,0,0,1,1.24,1.24v17.1H29.86a1.77,1.77,0,0,0-.4.08A4.13,4.13,0,0,0,23,38.89a1.23,1.23,0,0,1-.9.43H21a1.24,1.24,0,0,1-1.24-1.24V36a1.5,1.5,0,1,0-3,0v3.54a2.74,2.74,0,0,0,2.74,2.74h1.42a1.23,1.23,0,0,1,1.16.83,4.13,4.13,0,0,0,7.86,0,1.23,1.23,0,0,1,1.16-.83H47.66a1.23,1.23,0,0,1,1.16.83,4.13,4.13,0,0,0,7.94-.27.71.71,0,0,1,.68-.56h0a2.2,2.2,0,0,0,2.2-2.2v-7.4A2.17,2.17,0,0,0,57.47,30.55ZM26,43a1.22,1.22,0,1,1,1.18-1.22A1.2,1.2,0,0,1,26,43ZM48.75,28H50a1.25,1.25,0,0,1,1,.49l1.56,2H48.75a.7.7,0,0,1-.7-.7V28.72A.7.7,0,0,1,48.75,28Zm4,15a1.22,1.22,0,1,1,1.18-1.22A1.2,1.2,0,0,1,52.75,43Zm3.9-3.7h-.54a4.13,4.13,0,0,0-6.8.1,1.53,1.53,0,0,0-.49-.1h-.77V34.78a1.24,1.24,0,0,1,1.24-1.24h6.12a1.25,1.25,0,0,1,1.24,1.24Z"/></svg>