<svg id="Layer_1" data-name="Layer 1" xmlns="http://www.w3.org/2000/svg" viewBox="0 0 64 64"><defs><style>.cls-1{fill:#6b7178;}.cls-2{fill:#0288c9;}</style></defs><path class="cls-1" d="M47.66,22.43h0l-4.9-7a2.69,2.69,0,0,0-2.19-1.14H23.41a2.69,2.69,0,0,0-2.19,1.13l-5,7a1.59,1.59,0,0,0-.18.4l0,.07L16,23a1.17,1.17,0,0,0-.08.38V47.05a2.65,2.65,0,0,0,2.65,2.65H45.41a2.65,2.65,0,0,0,2.65-2.65V23.41A1.45,1.45,0,0,0,47.66,22.43Zm-24.47-4.7a1.19,1.19,0,0,1,1-.51H39.8a1.22,1.22,0,0,1,1,.51l2,2.92A.84.84,0,0,1,42.15,22H21.85a.87.87,0,0,1-.71-1.37ZM44,46.8H20.05a1.21,1.21,0,0,1-1.21-1.21V26.07a1.21,1.21,0,0,1,1.21-1.21H44a1.21,1.21,0,0,1,1.21,1.21V45.59A1.21,1.21,0,0,1,44,46.8Z"/><path class="cls-2" d="M36.38,22,34.45,14.3h-4.9L27.63,22h0V35.08a1.46,1.46,0,0,0,1.46,1.46h5.84a1.46,1.46,0,0,0,1.46-1.46V22Zm-2.92,2.91v8.74H30.54V22h0L32,16.16,33.46,22h0v2.91Z"/></svg>