<svg id="Layer_1" data-name="Layer 1" xmlns="http://www.w3.org/2000/svg" viewBox="0 0 64 64"><defs><style>.cls-1{fill:#6b7178;}.cls-2{fill:#0288c9;}</style></defs><path class="cls-1" d="M48.57,26.9H44.89a1.42,1.42,0,0,0,0,2.84H46.6A1.46,1.46,0,0,1,48,31.66L43.27,45.77a1.46,1.46,0,0,1-1.39,1H20.76a1.45,1.45,0,0,1-1.41-1.11L15.83,31.55a1.46,1.46,0,0,1,1.42-1.81H29.8a1.42,1.42,0,0,0,0-2.84H15.43a2.88,2.88,0,0,0-2.79,3.58l4.22,16.94a2.88,2.88,0,0,0,2.79,2.18H42.91a2.87,2.87,0,0,0,2.72-2l5.66-16.95A2.87,2.87,0,0,0,48.57,26.9Z"/><path class="cls-2" d="M36.46,34.34A1.43,1.43,0,0,0,35,32.92H19.68a1.42,1.42,0,0,0,0,2.84H35A1.42,1.42,0,0,0,36.46,34.34Z"/><path class="cls-2" d="M22,39.9H37.36a1.42,1.42,0,1,0,0-2.83H22a1.42,1.42,0,1,0,0,2.83Z"/><path class="cls-2" d="M36.66,31.43l-4.87-4.87a1,1,0,0,1,0-1.42,1,1,0,0,1,1.41,0l3.17,3.16V16a1,1,0,1,1,2,0V28.3l3.16-3.16A1,1,0,0,1,43,26.56l-4.88,4.87A1,1,0,0,1,36.66,31.43Z"/><path class="cls-2" d="M24.34,44.05H39.69a1.42,1.42,0,0,0,0-2.84H24.34a1.42,1.42,0,0,0,0,2.84Z"/></svg>