<svg id="Layer_1" data-name="Layer 1" xmlns="http://www.w3.org/2000/svg" viewBox="0 0 64 64"><defs><style>.cls-1{fill:#0288c9;}.cls-2{fill:#6b7178;}</style></defs><path class="cls-1" d="M32,18.1a6.23,6.23,0,0,1,6.22,6.21v.31l0,.76.36.68a1.89,1.89,0,0,1,.17.82,1.81,1.81,0,0,1-.16.81l-.93.37-.45,1.15c-1,2.49-2.93,5.4-5.17,5.4s-4.18-2.91-5.17-5.4l-.45-1.15-.93-.37a1.81,1.81,0,0,1-.16-.81,1.89,1.89,0,0,1,.17-.82l.36-.68,0-.76v-.29A6.24,6.24,0,0,1,32,18.1m0-2.88a9.1,9.1,0,0,0-9.1,9.11c0,.12,0,.26,0,.39a4.71,4.71,0,0,0-.5,2.16,4.1,4.1,0,0,0,1.12,3,4.31,4.31,0,0,1,1,1.32c1.57,3.41,4.16,6.31,7.46,6.31s5.89-2.9,7.45-6.31a4.5,4.5,0,0,1,1-1.32,4.1,4.1,0,0,0,1.12-3,4.71,4.71,0,0,0-.5-2.16c0-.13,0-.27,0-.39A9.1,9.1,0,0,0,32,15.22Z"/><path class="cls-2" d="M41.75,39.32c.51,0,.9,0,.92,0h.06a4.47,4.47,0,0,1,4.47,4.48h0a2.08,2.08,0,0,1-2.08,2.08H18.87a2.08,2.08,0,0,1-2.07-2.08h0a4.48,4.48,0,0,1,4.47-4.48h.06s.41,0,.92,0l1,0A11.27,11.27,0,0,0,32,43a11.27,11.27,0,0,0,8.77-3.64l1,0m0-2.88a6.24,6.24,0,0,0-2.59.31A8.29,8.29,0,0,1,32,40.1a8.29,8.29,0,0,1-7.16-3.35,6.24,6.24,0,0,0-2.59-.31c-.58,0-1,0-1,0a7.32,7.32,0,0,0-7.3,7.3v2.18a2.84,2.84,0,0,0,2.83,2.84H47.38a2.71,2.71,0,0,0,2.7-2.71V43.76a7.32,7.32,0,0,0-7.3-7.3s-.45,0-1,0Z"/></svg>