<svg id="Layer_1" data-name="Layer 1" xmlns="http://www.w3.org/2000/svg" viewBox="0 0 64 64"><defs><style>.cls-1{fill:#0288c9;}.cls-2{fill:#6b7178;}</style></defs><path class="cls-1" d="M40,39.06H37.26V31.89a1.62,1.62,0,0,0-1.61-1.61h-7.3a1.62,1.62,0,0,0-1.61,1.61v7.17H24a1.62,1.62,0,0,0-1.61,1.61V48A1.61,1.61,0,0,0,24,49.58H40A1.61,1.61,0,0,0,41.65,48V40.67A1.62,1.62,0,0,0,40,39.06ZM30,33.48h4.11V37.6H30Zm-.28,12.9H25.56V42.26h4.11Zm8.78,0H34.34V42.26h4.11Z"/><path class="cls-2" d="M47.86,22.24,34.05,13.51a4.11,4.11,0,0,0-4.43,0L16.11,22.25a4.11,4.11,0,0,0-1.88,3.45V47a4.11,4.11,0,0,0,4.11,4.11H45.66A4.11,4.11,0,0,0,49.77,47V25.72A4.13,4.13,0,0,0,47.86,22.24ZM46.55,45.41a2.5,2.5,0,0,1-2.5,2.5H20a2.5,2.5,0,0,1-2.5-2.5V26.58a2.5,2.5,0,0,1,1.14-2.1L30.5,16.79a2.51,2.51,0,0,1,2.7,0l12.19,7.72a2.5,2.5,0,0,1,1.16,2.11Z"/></svg>