<svg id="Layer_1" data-name="Layer 1" xmlns="http://www.w3.org/2000/svg" viewBox="0 0 64 64"><defs><style>.cls-1{fill:#0288c9;}.cls-2{fill:#6b7178;}</style></defs><path class="cls-1" d="M32,32.69a6.79,6.79,0,1,1,6.79-6.78A6.79,6.79,0,0,1,32,32.69Zm0-10.57a3.79,3.79,0,1,0,3.79,3.79A3.8,3.8,0,0,0,32,22.12Z"/><path class="cls-2" d="M32,51.9a1.59,1.59,0,0,1-1.31-.69l-.26-.37c-1.25-1.81-12.24-18-12.24-24.93a13.81,13.81,0,0,1,27.62,0c0,7-11,23.12-12.24,24.93l-.26.37A1.59,1.59,0,0,1,32,51.9Zm0-36a10,10,0,0,0-10,10c0,3.55,7.14,15.66,9.33,19.29a.8.8,0,0,0,1.36,0C34.87,41.57,42,29.46,42,25.91A10,10,0,0,0,32,15.9Z"/></svg>